PathFileType	4	(X/Y/Z)	s11c0102.trc
DataRate	CameraRate	NumFrames	NumMarkers	Units	OrigDataRate	OrigDataStartFrame	OrigNumFrames
200	200	4	48	mm	200	1000	2000
Frame#	Time	racr			lacr			c7			jug			rlel			rdr			llel			ldr			s2			lic			ric			lasi			rasi			rpsi			lpsi			rgt			lgt			rth1			rth2			rth3			rth4			rlfc			rmfc			rsh1			rsh2			rsh3			rsh4			rlmal			rcal			rtoe			rmt5			lth1			lth2			lth4			lth3			llfc			lmfc			llmal			lcal			lmt5			lsh1			lsh2			lsh3			lsh4			ltoe			SBIKE			LBIKE			RBIKE			
		X1	Y1	Z1	X2	Y2	Z2	X3	Y3	Z3	X4	Y4	Z4	X5	Y5	Z5	X6	Y6	Z6	X7	Y7	Z7	X8	Y8	Z8	X9	Y9	Z9	X10	Y10	Z10	X11	Y11	Z11	X12	Y12	Z12	X13	Y13	Z13	X14	Y14	Z14	X15	Y15	Z15	X16	Y16	Z16	X17	Y17	Z17	X18	Y18	Z18	X19	Y19	Z19	X20	Y20	Z20	X21	Y21	Z21	X22	Y22	Z22	X23	Y23	Z23	X24	Y24	Z24	X25	Y25	Z25	X26	Y26	Z26	X27	Y27	Z27	X28	Y28	Z28	X29	Y29	Z29	X30	Y30	Z30	X31	Y31	Z31	X32	Y32	Z32	X33	Y33	Z33	X34	Y34	Z34	X35	Y35	Z35	X36	Y36	Z36	X37	Y37	Z37	X38	Y38	Z38	X39	Y39	Z39	X40	Y40	Z40	X41	Y41	Z41	X42	Y42	Z42	X43	Y43	Z43	X44	Y44	Z44	X45	Y45	Z45	X46	Y46	Z46	X47	Y47	Z47	X48	Y48	Z48	
1000	5.0000	549.103030	1360.953939	-165.483419	491.916278	1362.987752	-445.481741	465.083264	1440.849111	-298.382681	455.590482	1252.165705	-301.358960	605.275620	1142.082999	7.639424	782.267848	928.580880	-75.762922	483.155440	1077.844025	-564.840955	764.051144	930.445947	-480.609406	-106.271447	1217.297444	-221.731246	85.018036	1263.450866	-445.280945	130.340038	1208.312190	-44.149044	120.350295	1197.985562	-399.249444	154.962428	1150.966510	-76.878842	-56.242117	1287.786283	-160.713915	-72.543914	1290.733698	-256.161637	47.463362	1049.869614	-29.849124	32.348168	1155.547405	-464.700879	111.288662	925.294749	-24.454661	172.482648	859.868910	-37.569181	189.916202	776.969490	-60.617122	204.687081	878.138936	-43.970005	240.951978	686.435600	-85.044779	239.644497	671.712194	-210.367159	193.259630	539.512221	-67.844183	186.718648	453.370336	-86.461024	139.842183	379.666860	-86.938509	209.792613	449.078260	-118.317227	92.183125	245.387335	-99.442477	28.257034	230.661583	-145.603438	310.388645	177.963309	-148.047960	240.806714	154.379283	-77.608429	173.605408	1116.310354	-477.882197	259.305999	1116.590160	-473.986552	269.581222	1149.422432	-458.462632	337.460616	1072.539806	-480.750729	459.590636	1028.368110	-467.826086	487.379682	1020.285059	-332.107635	271.259263	652.412647	-423.700765	214.626035	657.622258	-384.436619	320.240113	479.825763	-450.998517	411.933571	922.456922	-475.173645	397.946377	838.917054	-459.858913	342.683843	770.394453	-449.554059	429.700242	827.548050	-439.906423	404.069591	426.542238	-387.587092	-215.074101	955.424133	-255.988036	-17.725077	81.247522	-460.960134	-17.692504	80.991930	-62.040823	
1001	5.0050	549.359705	1359.340524	-166.140956	492.718867	1361.345898	-444.761035	466.072397	1438.916498	-298.622651	456.119436	1250.246793	-301.452912	605.953458	1141.837865	8.047726	782.402290	928.333940	-75.519787	483.074931	1077.566815	-565.904814	763.648980	930.603364	-480.710509	-106.592036	1219.531715	-220.934463	83.900339	1265.023830	-445.634762	131.550551	1209.535125	-44.242596	118.898783	1199.729341	-399.695432	155.383691	1151.685408	-77.146971	-55.600091	1289.985492	-160.200253	-72.937732	1293.213660	-255.719147	47.324381	1051.706535	-29.399609	30.804294	1156.822761	-463.987898	110.567173	928.414999	-23.728951	174.540754	862.790188	-36.808026	193.204854	780.423937	-59.986107	206.490707	881.435674	-42.700621	245.127318	690.036282	-83.743907	245.940919	675.717691	-209.866921	194.310943	543.483650	-66.899223	185.687609	457.637493	-85.684760	137.078574	385.066356	-86.450834	208.746060	452.785928	-117.466533	86.149015	252.309952	-99.018281	22.144894	240.075037	-145.361995	302.129767	176.917957	-148.039971	231.770235	156.027045	-77.557903	172.203602	1117.328285	-477.128850	257.879066	1117.193393	-473.205766	268.313975	1150.030591	-458.013979	335.897097	1072.723899	-479.336259	458.301350	1028.200629	-466.242534	484.751006	1020.140701	-330.767862	275.075773	648.906705	-423.638119	217.343138	652.146920	-385.003469	329.830966	478.609501	-451.518954	412.914189	921.539480	-473.304125	400.314812	837.512269	-459.032712	346.255867	768.054867	-449.756803	432.069449	826.642588	-438.703279	415.614966	428.586402	-387.594389	-215.120506	955.423296	-255.828039	-17.729841	81.273450	-460.939838	-17.676719	80.992789	-62.028863	
1002	5.0100	549.576653	1357.487349	-166.492397	493.446854	1359.443459	-443.996384	467.020266	1436.877496	-298.777724	456.403328	1248.232593	-301.360805	606.398056	1141.535673	8.751470	782.494282	928.186455	-75.216608	483.048505	1077.176180	-567.077974	763.228969	930.645036	-480.783519	-107.013489	1221.771338	-220.211761	82.738876	1266.781832	-446.304281	132.286938	1210.383889	-43.930112	117.489949	1201.413474	-400.782605	155.482882	1152.823224	-77.422924	-53.548880	1291.302771	-160.952233	-72.315094	1295.148051	-256.217300	47.140950	1053.638545	-28.675930	28.958781	1157.657330	-463.031218	110.281359	931.590847	-23.004389	177.213478	865.989950	-36.207302	197.468502	783.915801	-59.234068	208.981394	885.167490	-41.683885	250.546936	694.078325	-82.404140	252.571596	679.881281	-208.640380	196.010495	548.176026	-66.092189	185.305919	462.564472	-85.011398	134.910241	391.197077	-85.982077	208.385206	457.121676	-116.685112	80.727494	260.008355	-98.727565	16.913100	250.290848	-145.214124	294.062432	176.187362	-148.080080	222.993293	158.224638	-77.525704	170.563904	1117.733335	-476.365672	256.069536	1117.262374	-472.651813	266.821351	1150.054687	-457.552849	334.000998	1072.335505	-478.431784	456.749823	1026.823841	-465.025688	481.901960	1018.878456	-329.504888	278.271421	644.159131	-423.676881	219.385791	645.474359	-385.610127	339.137602	476.326068	-451.428734	413.883304	919.355296	-471.473893	402.445396	834.849934	-458.459428	349.357479	764.516895	-450.172280	434.035912	824.438374	-437.719539	426.777320	430.411772	-387.605394	-215.117623	955.287331	-255.581063	-17.726724	81.304327	-460.931036	-17.688054	81.008258	-62.029577	
1003	5.0150	549.682608	1355.471553	-166.609477	494.148172	1357.288010	-443.116287	467.916715	1434.617423	-298.933083	456.579376	1246.002489	-301.189135	606.708844	1141.138944	9.784119	782.479240	928.146710	-74.927253	482.984685	1076.507219	-568.287139	762.766865	930.633394	-480.985779	-107.481674	1224.072772	-219.373726	81.405556	1268.570440	-447.189646	132.600683	1212.222777	-43.373675	115.823635	1202.639387	-401.723273	155.319408	1154.135149	-77.722764	-53.271904	1293.553877	-160.606022	-72.562358	1297.359900	-255.856875	47.022023	1055.569356	-28.358973	26.909988	1158.158367	-462.153638	110.879692	934.527106	-22.149492	180.467191	869.428502	-35.824548	202.422341	787.565566	-58.412197	211.892001	888.967888	-41.068912	256.153002	698.408853	-81.313580	258.884444	684.754830	-207.844602	198.426469	553.307237	-65.356446	185.653874	467.891814	-84.405944	133.522116	397.919794	-85.612088	208.753209	462.009891	-115.996618	76.143666	268.425834	-98.435362	12.435186	261.404091	-145.160390	286.260514	175.405151	-148.269386	214.511439	161.014511	-77.589925	168.619680	1117.683924	-475.600628	254.120713	1116.705890	-472.022472	265.139584	1149.511844	-457.173113	331.608617	1071.389840	-477.945887	455.992196	1023.983160	-463.609428	479.052940	1016.238982	-328.423075	280.782678	638.426119	-423.912022	220.845223	637.562532	-386.528505	348.026311	473.867610	-452.166840	414.563163	915.745502	-470.163519	404.017327	830.825342	-458.199731	351.724144	759.925301	-450.700241	435.213373	821.482509	-438.388881	437.602868	432.105391	-387.678416	-215.141948	955.268025	-255.483159	-17.724849	81.337953	-460.902186	-17.684999	81.021804	-62.028622	
